<svg id="Layer_1" data-name="Layer 1" xmlns="http://www.w3.org/2000/svg" viewBox="0 0 32 27"><defs><style>.cls-1{fill:#fff;}</style></defs><title>camera</title><g id="camera"><path class="cls-1" d="M16,10a8,8,0,1,0,8,8A8,8,0,0,0,16,10Zm4.56,11.91a6,6,0,1,1-.65-8.46A6,6,0,0,1,20.56,21.91Z" transform="translate(0 -3)"/><path class="cls-1" d="M16,14a4,4,0,0,0-4,4h0a.5.5,0,0,0,1,0h0a3,3,0,0,1,3-3,.5.5,0,0,0,.5-.5A.5.5,0,0,0,16,14Z" transform="translate(0 -3)"/><path class="cls-1" d="M29.49,9l-4.33-.72L23.79,4.89A3,3,0,0,0,21,3H11A3,3,0,0,0,8.21,4.89L6.84,8.32,2.51,9A3,3,0,0,0,0,12V27a3,3,0,0,0,3,3H29a3,3,0,0,0,3-3V12A3,3,0,0,0,29.49,9ZM30,27a1,1,0,0,1-1,1H3a1,1,0,0,1-1-1V12a1,1,0,0,1,.84-1l5.44-.9,1.79-4.48A1,1,0,0,1,11,5H21a1,1,0,0,1,.93.63l1.79,4.48,5.44.9A1,1,0,0,1,30,12Z" transform="translate(0 -3)"/></g></svg>