<?xml version="1.0" encoding="utf-8"?>
<!-- Generator: Adobe Illustrator 22.0.0, SVG Export Plug-In . SVG Version: 6.00 Build 0)  -->
<svg version="1.1" id="Layer_1" xmlns="http://www.w3.org/2000/svg" xmlns:xlink="http://www.w3.org/1999/xlink" x="0px" y="0px"
	 viewBox="0 0 440 440" style="enable-background:new 0 0 440 440;" xml:space="preserve">
<style type="text/css">
	.st0{fill:#49494A;}
	.st1{fill:#FFFFFF;}
</style>
<path class="st0" d="M220.5,431.5h-1c-116.5,0-211-94.5-211-211v-1c0-116.5,94.5-211,211-211h1c116.5,0,211,94.5,211,211v1
	C431.5,337,337.1,431.5,220.5,431.5z"/>
<g>
	<path class="st1" d="M339.3,155.8c1.7-5.8,0-10.1-8.3-10.1h-27.3c-7,0-10.2,3.7-11.9,7.7c0,0-13.9,33.9-33.6,55.9
		c-6.4,6.4-9.3,8.4-12.7,8.4c-1.7,0-4.3-2-4.3-7.8v-54.2c0-7-2-10.1-7.8-10.1h-43c-4.3,0-7,3.2-7,6.3c0,6.6,9.9,8.1,10.9,26.7V219
		c0,8.8-1.6,10.4-5.1,10.4c-9.3,0-31.8-34.1-45.2-73c-2.6-7.6-5.3-10.6-12.2-10.6h-27.4c-7.8,0-9.4,3.7-9.4,7.7
		c0,7.2,9.3,43.2,43.2,90.7c22.6,32.5,54.4,50,83.4,50c17.4,0,19.5-3.9,19.5-10.6v-24.5c0-7.8,1.6-9.4,7.2-9.4c4.1,0,11,2,27.2,17.7
		c18.5,18.5,21.6,26.9,32,26.9h27.4c7.8,0,11.7-3.9,9.5-11.6c-2.5-7.7-11.3-18.8-23.1-32.1c-6.4-7.5-15.9-15.6-18.8-19.7
		c-4.1-5.2-2.9-7.5,0-12.2C302.5,218.7,335.8,171.8,339.3,155.8z"/>
</g>
</svg>
